<svg xmlns="http://www.w3.org/2000/svg" width="50" height="50" viewBox="0 0 50 50">
  <path d="M25 0c-13.86 0-25 11.14-25 25s11.14 25 25 25 25-11.14 25-25-11.14-25-25-25zm0 44.44c-12.1 0-21.94-9.84-21.94-21.94 0-12.1 9.84-21.94 21.94-21.94 12.1 0 21.94 9.84 21.94 21.94 0 12.1-9.84 21.94-21.94 21.94z" fill="#000000"/>
  <path d="M25 10.56c-4.14 0-7.5 3.36-7.5 7.5 0 4.14 3.36 7.5 7.5 7.5 4.14 0 7.5-3.36 7.5-7.5 0-4.14-3.36-7.5-7.5-7.5z" fill="#ffffff"/>
  <path d="M33.75 29.69l-3 3 1.25 1.25 3-3-1.25-1.25z" fill="#ffffff"/>
  <path d="M21.25 29.69l-3 3 1.25 1.25 3-3-1.25-1.25z" fill="#ffffff"/>
  <path d="M27.5 25c-1.38 0-2.5 1.12-2.5 2.5s1.12 2.5 2.5 2.5 2.5-1.12 2.5-2.5-1.12-2.5-2.5-2.5z" fill="#ffffff"/>
</svg>
